<svg width="241" height="55" viewBox="0 0 241 55" fill="none" xmlns="http://www.w3.org/2000/svg">
<circle cx="136.888" cy="27.2081" r="17.352" stroke="white" stroke-opacity="0.15" stroke-width="19.28"/>
<circle opacity="0.6" cx="136.888" cy="27.2081" r="15.424" stroke="white" stroke-width="3.856"/>
<path d="M5.61066 48.416H0L16.2277 6H21.7521L37.9798 48.416H32.3692L19.1625 12.7103H18.8173L5.61066 48.416ZM7.68228 31.8472H30.2976V36.4037H7.68228V31.8472Z" fill="white"/>
<path d="M46.6763 48.416H41.0657L57.2934 6H62.8178L79.0455 48.416H73.4349L60.2282 12.7103H59.883L46.6763 48.416ZM48.748 31.8472H71.3632V36.4037H48.748V31.8472Z" fill="white"/>
<path d="M85.9294 48.416V6H100.862C104.315 6 107.149 6.5661 109.365 7.6983C111.58 8.81669 113.22 10.3562 114.285 12.3168C115.349 14.2775 115.882 16.5073 115.882 19.0065C115.882 21.5056 115.349 23.7217 114.285 25.6547C113.22 27.5877 111.587 29.1065 109.386 30.2111C107.185 31.3019 104.373 31.8472 100.949 31.8472H88.8642V27.208H100.776C103.135 27.208 105.034 26.8766 106.473 26.2139C107.926 25.5511 108.976 24.6122 109.624 23.3972C110.285 22.1683 110.616 20.7048 110.616 19.0065C110.616 17.3082 110.285 15.8239 109.624 14.5536C108.962 13.2833 107.904 12.303 106.451 11.6127C104.998 10.9085 103.078 10.5564 100.69 10.5564H91.2811V48.416H85.9294ZM106.732 29.3619L117.608 48.416H111.393L100.69 29.3619H106.732Z" fill="white"/>
<path d="M195.146 6V48.416H189.955L165.82 15.1128H165.387V48.416H160.024V6H165.214L189.436 39.386H189.869V6H195.146Z" fill="white"/>
<path d="M241 6V48.416H235.81L211.674 15.1128H211.242V48.416H205.878V6H211.069L235.291 39.386H235.723V6H241Z" fill="white"/>
</svg>
